<?xml version="1.0" encoding="utf-8"?>
<!-- Generator: Adobe Illustrator 27.2.0, SVG Export Plug-In . SVG Version: 6.00 Build 0)  -->
<svg version="1.1" id="Layer_1" xmlns="http://www.w3.org/2000/svg" xmlns:xlink="http://www.w3.org/1999/xlink" x="0px" y="0px"
	 viewBox="0 0 6056.58 7093.35" style="enable-background:new 0 0 6056.58 7093.35;" xml:space="preserve">
<style type="text/css">
	.st0{display:none;fill:#D6EEFE;}
	.st1{fill:url(#SVGID_1_);}
	.st2{fill:url(#SVGID_00000079465337038051782470000004008912328129629067_);}
	.st3{fill:#FFAA55;}
	.st4{fill:#FDBF67;}
	.st5{fill:url(#SVGID_00000119099093936840078690000011942327176280553662_);}
	.st6{fill:#FBB456;}
	.st7{fill:url(#SVGID_00000137844151296682129930000006834879587230238340_);}
	.st8{fill:url(#SVGID_00000026144431062858528300000005939430161361849255_);}
	.st9{fill:url(#SVGID_00000074404631969235892120000014930763445133065632_);}
	.st10{fill:#EEA987;}
	.st11{fill:#EBCFCF;}
	.st12{fill:#16202E;}
	.st13{fill:#8899DB;}
	.st14{fill:#2D3466;}
	.st15{fill:#191D38;}
	.st16{fill:#464240;}
	.st17{fill:#BA3838;}
	.st18{fill:#252E3B;}
	.st19{fill:#6E82DB;}
	.st20{fill:#EEA886;}
	.st21{fill:#A77860;}
	.st22{fill:#434F85;}
	.st23{fill:url(#SVGID_00000050638318096475279790000013013840723244425657_);}
	.st24{fill:#FFFFFF;}
</style>
<g id="BACKGROUND">
</g>
<rect x="3606.26" y="-425.74" class="st0" width="6056.58" height="7093.35"/>
<g>
	
		<linearGradient id="SVGID_1_" gradientUnits="userSpaceOnUse" x1="3252.4529" y1="4554.6289" x2="11402.7666" y2="4554.6289" gradientTransform="matrix(-1 0 0 1 9689.9912 0)">
		<stop  offset="0" style="stop-color:#9A5CFF"/>
		<stop  offset="0.9948" style="stop-color:#4059BF"/>
	</linearGradient>
	<path class="st1" d="M-1512.24,7284.75h7949.77V2358.57c-2357.69-1275.57-4412-31.11-4606.2,1275.41
		C1624.66,5024.5,349.15,5184.45-878.29,5522.28C-2256.19,5901.69-1512.24,7284.75-1512.24,7284.75z"/>
	
		<linearGradient id="SVGID_00000151538653436686009400000009461631550780353408_" gradientUnits="userSpaceOnUse" x1="1637.3868" y1="1648.6034" x2="9155.8838" y2="-4161.1357" gradientTransform="matrix(-1 0 0 1 9689.9912 0)">
		<stop  offset="0" style="stop-color:#9A5CFF"/>
		<stop  offset="0.9948" style="stop-color:#4059BF"/>
	</linearGradient>
	<path style="fill:url(#SVGID_00000151538653436686009400000009461631550780353408_);" d="M3206.43-217.45
		c0,1127.72,1302.9,2041.95,2910.07,2041.95c118.34,0,235.36-5.03,349.96-14.84v-4054.22c-114.6-9.81-231.62-14.84-349.96-14.84
		C4509.33-2259.39,3206.43-1345.16,3206.43-217.45z"/>
	<g>
		<path class="st3" d="M5630.04,5262.91H4299.01l665.51-1495.68L5630.04,5262.91z M4347.55,5231.38h1233.95l-616.96-1386.6
			L4347.55,5231.38z"/>
	</g>
	<g>
		<path class="st3" d="M1976.4,5632.82H645.38l665.51-1495.7L1976.4,5632.82z M693.92,5601.29h1233.94L1310.89,4214.7
			L693.92,5601.29z"/>
	</g>
	<g>
		<path class="st4" d="M3123.16,3917.1c-1.2-0.35-122.06-35.79-282.49-39.18c-146.33-3.09-356.8,20.62-528.42,151.11
			c-176.05,133.86-387.28,178.95-533.37,193.21c-30.4,2.97-57.98,4.61-81.83,5.42c-201.12,6.93-381.25-33.9-448.54-101.62
			c-3.76-3.64-27.23-27.07-45.7-60.33c-28.87-51.99-32.28-104.66-9.58-148.24c24.22-46.55,69.24-69.41,117.47-59.7
			c47.81,9.63,85.14,47.93,95.1,97.54l-61.39,14.24c-4.72-23.46-25.09-37.67-43.18-41.31c-10.78-2.16-37.59-3.9-53.58,26.8
			c-26.62,51.16,40.39,116.41,41.08,117.08l0.72,0.71c46.11,46.71,199.74,90.31,404.11,83.28
			c131.81-4.54,382.81-34.84,582.76-186.88c82.12-62.45,178.72-107.63,287.16-134.29c86.05-21.17,179.74-30.76,278.43-28.55
			c141.19,3.16,250.71,29.35,284.84,38.46c31.71-15.55,134.11-62.42,272.02-92.86c96.39-21.25,190.17-29.96,278.7-25.85
			c111.53,5.18,215.06,30.81,307.7,76.18c225.59,110.49,477.71,91.67,607.92,70.61c201.86-32.65,344.15-105.15,380.35-159.9
			l0.64-0.92c0.48-0.69,53.62-77.68,17.58-122.72c-21.62-27.03-47.6-20.14-57.74-15.92c-17.07,7.08-34.29,24.94-34.38,48.88l-63-2.1
			c0.18-50.61,29.4-95.38,74.45-114.08c45.44-18.88,94.02-5.14,126.8,35.82c30.7,38.39,37.56,90.71,19.27,147.31
			c-11.68,36.18-30.16,63.71-33.14,68.03c-52.91,79.47-221.75,154.37-420.42,186.49c-23.57,3.82-50.95,7.53-81.35,10.51
			c-146.07,14.26-362.01,10.9-560.64-86.37c-194.14-95.07-405.83-77.31-549.23-45.67c-156.42,34.52-266.91,92.17-268.01,92.75
			L3123.16,3917.1z"/>
		<path class="st4" d="M1408.2,3971.35c0,35.37-28.67,64.04-64.04,64.04c-35.35,0-64.03-28.67-64.03-64.04
			c0-35.37,28.67-64.04,64.03-64.04C1379.52,3907.31,1408.2,3935.98,1408.2,3971.35z"/>
		<path class="st4" d="M4964.53,3616.76c0,35.37-28.67,64.02-64.04,64.02c-35.37,0-64.04-28.65-64.04-64.02
			c0-35.37,28.67-64.04,64.04-64.04C4935.85,3552.72,4964.53,3581.39,4964.53,3616.76z"/>
	</g>
	<g>
		
			<linearGradient id="SVGID_00000149374025799221789940000011899867268276510633_" gradientUnits="userSpaceOnUse" x1="7117.5732" y1="5154.0312" x2="6241.4819" y2="5335.7388" gradientTransform="matrix(-1 0 0 1 9689.9912 0)">
			<stop  offset="0" style="stop-color:#FFCD7D"/>
			<stop  offset="0.0539" style="stop-color:#FFCB79"/>
			<stop  offset="0.9948" style="stop-color:#F7A037"/>
		</linearGradient>
		<path style="fill:url(#SVGID_00000149374025799221789940000011899867268276510633_);" d="M2526.12,6950.65v-140.59h436.97v-0.34
			c-33.99-3.27-60.56-31.89-60.56-66.74c0-34.84,26.57-63.46,60.56-66.71V5977.2h6.5c-37.05,0-67.06-30.01-67.06-67.04l0,0
			c0-37.05,30.01-67.06,67.06-67.06h46.41V4215.28h-25.6c-21.06,0-38.12-17.07-38.12-38.13V4152c0-21.04,17.07-38.12,38.12-38.12
			h25.6v-800.88h257.94v800.88h25.6c21.06,0,38.12,17.08,38.12,38.12v25.16c0,21.06-17.07,38.13-38.12,38.13h-25.6v1627.81h46.41
			c37.05,0,67.06,30.01,67.06,67.06l0,0c0,37.03-30.02,67.04-67.06,67.04h6.5v699.06c33.99,3.25,60.56,31.87,60.56,66.71
			c0,34.86-26.57,63.48-60.56,66.74v0.34h436.96v140.59h191.51v140.61H2334.63v-140.61H2526.12z"/>
		
			<ellipse transform="matrix(0.9999 -0.0147 0.0147 0.9999 -56.6057 46.72)" class="st6" cx="3144.98" cy="3868.09" rx="202.62" ry="202.6"/>
		
			<linearGradient id="SVGID_00000160152902310870095260000016917385232937154463_" gradientUnits="userSpaceOnUse" x1="6960.0732" y1="3343.0012" x2="6168.314" y2="3476.0432" gradientTransform="matrix(-1 0 0 1 9689.9912 0)">
			<stop  offset="0" style="stop-color:#FFCD7D"/>
			<stop  offset="0.0539" style="stop-color:#FFCB79"/>
			<stop  offset="0.9948" style="stop-color:#F7A037"/>
		</linearGradient>
		<path style="fill:url(#SVGID_00000160152902310870095260000016917385232937154463_);" d="M3347.6,3222.75v41.11l0,0
			c0,0-45.62,38.03-45.62,120.26l0,0v226.3h-314.01v-226.3c0-82.23-45.62-120.26-45.62-120.26l0,0v-41.11H3347.6z"/>
		
			<linearGradient id="SVGID_00000083053289830888502640000003957131161796877727_" gradientUnits="userSpaceOnUse" x1="7016.8589" y1="2863.5911" x2="5894.1909" y2="3259.4451" gradientTransform="matrix(-1 0 0 1 9689.9912 0)">
			<stop  offset="0" style="stop-color:#FFCD7D"/>
			<stop  offset="0.0539" style="stop-color:#FFCB79"/>
			<stop  offset="0.9948" style="stop-color:#F7A037"/>
		</linearGradient>
		<path style="fill:url(#SVGID_00000083053289830888502640000003957131161796877727_);" d="M2931.65,3029.96
			c0,117.82,95.51,213.34,213.33,213.34c117.82,0,213.33-95.52,213.33-213.34c0-117.82-95.51-213.34-213.33-213.34
			C3027.16,2816.63,2931.65,2912.14,2931.65,3029.96z"/>
	</g>
	
		<linearGradient id="SVGID_00000171714510680721171280000017262598832053690507_" gradientUnits="userSpaceOnUse" x1="-8271.6875" y1="5337.5703" x2="-6872.3281" y2="5337.5703" gradientTransform="matrix(1 0 0 1 12536.5342 0)">
		<stop  offset="0" style="stop-color:#FFCD7D"/>
		<stop  offset="0.0539" style="stop-color:#FFCB79"/>
		<stop  offset="0.9948" style="stop-color:#F7A037"/>
	</linearGradient>
	<path style="fill:url(#SVGID_00000171714510680721171280000017262598832053690507_);" d="M4264.85,5178.02
		c0,176.23,313.25,319.1,699.66,319.1c386.43,0,699.7-142.87,699.7-319.1H4264.85z"/>
	<g>
		<g>
			<g>
				<path class="st10" d="M4603.63,5121.33c0,0-37.38,28.32-44.86,29.5c-7.47,1.18-77.52,16.91-84.2,14.17
					c-6.7-2.77-14.96,14.93,7.08,13.76c22.03-1.18,103.88,1.22,125.91-0.74c22.03-1.96,46.41,34.57,54.68,34.18
					c8.27-0.41,7.08-11.41-4.72-32.28c-11.8-20.83-23.13-32.35-13.78-58.6C4653.09,5095.06,4603.63,5121.33,4603.63,5121.33z"/>
			</g>
		</g>
	</g>
	<g>
		<g>
			<g>
				<path class="st11" d="M5018.66,4454.01c0,0,60.47,18.46,81.71,89.57c10.05,33.62,56.08,195.94,69.06,208.93
					c12.99,12.98,122.89,263.06,122.89,263.06l-56.46-3.2c0,0-112.47-207.92-119.55-217.37c-7.08-9.43-81.34-181.19-87.59-206.56
					C5022.46,4563.05,4964.67,4422.28,5018.66,4454.01z"/>
			</g>
		</g>
	</g>
	<g>
		<g>
			<g>
				<path class="st12" d="M5028.71,4122.97c0,0,71.14,34.81,53.55,129.45c-17.58,94.66-25.37,107.41-5.69,144.41
					c19.66,36.98,42.88,194.76,25.17,224.65c-17.7,29.91-219.16-131.41-247.09-266.77c-27.93-135.35,17.7-195.54,33.83-217.96
					C4904.62,4114.31,4965.92,4091.1,5028.71,4122.97z"/>
			</g>
		</g>
	</g>
	<g>
		<g>
			<g>
				<polygon class="st10" points="5012.97,5681.21 5001.77,5694.69 4956.7,5652.92 4966.73,5638.75 				"/>
			</g>
		</g>
	</g>
	<g>
		<g>
			<g>
				<path class="st13" d="M5001.77,5694.69c0,0,11.73,71.29,20.95,80.54c9.2,9.26,56.36,58.73,45.77,71.89
					c-10.6,13.18-113.63-59.1-128.37-85c-14.73-25.9-44.8-30.44-49.5-56.59c-4.7-26.15,66.07-52.61,66.07-52.61L5001.77,5694.69z"/>
			</g>
		</g>
	</g>
	<g>
		<g>
			<g>
				<path class="st14" d="M5042.54,5011.14c0,0,287.02,290.25,288.59,327.24c1.57,36.98-312.02,341.52-315.16,352.54l-54.89-52.17
					c0,0,139.48-198.06,181.99-240.57c39.84-39.84,66.09-60.6,66.09-60.6s-341.47-127.87-366.64-162.5
					c-25.18-34.61-51.99-95.61-23.67-151.09C4847.18,4968.53,5042.54,5011.14,5042.54,5011.14z"/>
			</g>
		</g>
	</g>
	<g>
		<g>
			<g>
				<path class="st14" d="M5060.05,5198.27h376.96c0,0-16.52,51.94-24.01,107.84c-7.37,54.87-28.36,348.6-28.36,348.6l74.8,21.29
					c-9.45-33.04,102.03-480.56,106.92-500.91c14.22-58.6-61.92-68.05-142.55-109.71c-83.23-43.14-288.64-93.94-288.64-93.94
					C4839.25,4970.51,5060.05,5198.27,5060.05,5198.27z"/>
			</g>
		</g>
	</g>
	<g>
		<g>
			<g>
				<polygon class="st10" points="5448.76,5672.96 5448,5690.93 5388.97,5673.86 5391.57,5656.69 				"/>
			</g>
		</g>
	</g>
	<g>
		<g>
			<g>
				<path class="st13" d="M5448,5690.93c0,0,42.49,58.42,54.89,62.56c12.39,4.14,76.73,27.14,73.18,43.67
					c-3.53,16.54-128.07-1.77-152.86-18.28c-24.79-16.54-53.71-7.08-69.64-28.34c-15.93-21.25,35.41-76.67,35.41-76.67L5448,5690.93
					z"/>
			</g>
		</g>
	</g>
	<g>
		<g>
			<g>
				<path class="st10" d="M5018.41,4133.46c0,0,103.28,32.46,47.2,210.7c-56.07,178.24-197.13-20.65-182.37-129.25
					C4898.01,4106.31,5018.41,4133.46,5018.41,4133.46z"/>
			</g>
		</g>
	</g>
	<g>
		<g>
			<g>
				<path class="st11" d="M4907.38,4434.39c0,0-108.6,45.46-135.74,100.93c-27.15,55.49,27.74,155.8,39.54,190.64
					c11.8,34.8,33.64,113.9,28.92,153.45c-4.73,39.54-18.89,119.8-21.25,144.59c0,0,227.23,18.89,316.34-52.52
					c0,0-59.02-45.44-63.74-98.56c-4.72-53.12,9.45-116.87,12.99-123.93c3.55-7.08,53.12-50.76,40.72-92.66
					c-12.38-41.91-31.27-144.57-60.69-173.03c-28.43-27.49-65.62-41.8-65.62-41.8L4907.38,4434.39z"/>
			</g>
		</g>
	</g>
	<g>
		<g>
			<g>
				<path class="st11" d="M4841.87,4504.03c10.3,10.07,39.54,37.77,4.72,115.1c-34.82,77.31-100.33,179.43-102.1,193.58
					c-1.77,14.17-95.54,311.03-97.91,316.93c-2.37,5.9-48.9-7.21-48.9-7.21s61.82-286.43,67.72-319.33
					C4665.39,4803.09,4763.37,4427.32,4841.87,4504.03z"/>
			</g>
		</g>
	</g>
	<g>
		<g>
			<g>
				<path class="st10" d="M4907.39,4434.31c-0.89,40.03,46.75,106.09,85.54,91.2c38.96-15.03,5.83-84.11,5.83-84.11l-11.85-4.42
					c0.18-1.79,0.71-3.91,1.41-6.03c2.47-7.46,7.44-15.93,7.44-15.93s-99.34-131.94-87.31-84.48
					C4920.68,4377.99,4907.39,4434.31,4907.39,4434.31z"/>
			</g>
		</g>
	</g>
	<g>
		<g>
			<g>
				<path class="st12" d="M5076.16,4237.47c0,0-51.31,50.35-137.2,56.66c0,0-29.06,34.38-31.59,49.57c0,0-80.58-126.3,13.62-204.6
					C5015.18,4060.8,5110.79,4205.21,5076.16,4237.47z"/>
			</g>
		</g>
	</g>
	<g>
		<g>
			<g>
				<path class="st10" d="M4938.86,4289.8c-0.67-12.97-8.66-42.51-27.93-34.24c-19.29,8.27,1.17,68.39,13.96,64.7
					C4924.88,4320.26,4940.43,4320.49,4938.86,4289.8z"/>
			</g>
		</g>
	</g>
	<path class="st15" d="M5096.3,5066.31c25.67,26.38,124.48,131.95,124.48,131.95h39.7
		C5187.75,5121.89,5096.3,5066.31,5096.3,5066.31z"/>
	<g>
		<g>
			<g>
				<path class="st16" d="M1276.68,3498.05c0,0-65.07-6.82-88.51,56c-23.43,62.83-45.51,83.4-48.27,116.4
					c-11.18,133.51-73.53,103.3-55.99,180.25c17.52,76.96,29.66,88.6,29.66,88.6l149.06-29.22l150.98,0.48
					c0,0-59.06-29.49-45.92-92.33c13.14-62.82,45.92-165.79,27.42-235.93C1376.61,3512.17,1315.55,3503.4,1276.68,3498.05z"/>
			</g>
		</g>
		<g>
			<g>
				<path class="st17" d="M1656.54,5568.81c0,0,51.06,68.73,44.06,79.64c-7.01,10.88-60.7,12.44-93.39,0
					c-32.68-12.47-33.46-93.02-48.25-127.63c-6.18-14.49,7.07-57.28,25.69-60.37c18.62-3.11,38.88,6.01,38.88,6.01
					S1604.21,5515.21,1656.54,5568.81z"/>
			</g>
		</g>
		<g>
			<g>
				<g>
					<path class="st18" d="M1623.87,5465.9c0,0,7.44,27.74,11.36,55.7c3.25,23.18,39.68,73.92,38.12,80.14
						c-1.55,6.24-43.57,11.87-60.69-4.17c-17.14-16.06-28.14-62.74-31.91-90.65c-3.52-26.01-7.95-38.85-7.95-38.85
						S1607.53,5448.8,1623.87,5465.9z"/>
				</g>
			</g>
		</g>
		<g>
			<g>
				<polygon class="st17" points="1557.61,5514.77 1557.61,5586.74 1566.93,5586.74 1566.93,5531.11 				"/>
			</g>
		</g>
		<g>
			<g>
				<path class="st17" d="M1215.31,5568.81c0,0,51.07,68.73,44.06,79.64c-7,10.88-60.69,12.44-93.39,0
					c-32.68-12.47-33.46-93.02-48.23-127.63c-6.2-14.49,7.05-57.28,25.67-60.37c18.62-3.11,38.88,6.01,38.88,6.01
					S1162.98,5515.21,1215.31,5568.81z"/>
			</g>
		</g>
		<g>
			<g>
				<g>
					<path class="st18" d="M1182.64,5465.9c0,0,7.44,27.74,11.36,55.7c3.25,23.18,39.7,73.92,38.14,80.14
						c-1.57,6.24-43.58,11.87-60.7-4.17c-17.12-16.06-28.14-62.74-31.91-90.65c-3.52-26.01-7.95-38.85-7.95-38.85
						S1166.3,5448.8,1182.64,5465.9z"/>
				</g>
			</g>
		</g>
		<g>
			<g>
				<polygon class="st17" points="1116.37,5514.77 1116.37,5586.74 1125.72,5586.74 1125.72,5531.11 				"/>
			</g>
		</g>
		<g>
			<g>
				<g>
					<path class="st18" d="M1433.57,4356.76c0,0,36.96,203.56,46.94,254.49c9.98,50.93,37.95,297.56,40.93,339.52
						c3,41.92,45.37,199.96,43.37,214.94c-2,14.98,62.82,315.87,62.82,315.87s-22.14,17.81-45.48,1.61
						c-12-8.34-110.29-257.97-129.11-330.46c-18.36-70.74-70.83-241.19-80.7-264.33c-91.74-215.17-92.52-304.54-104.52-318.52
						c-11.98-13.99-13.02,8.64-20.02,39.57c-6.98,30.97-21.94,298.59-30.94,332.54c-8.99,33.94-2.01,148.77-7,206.7
						c-5,57.91-26.92,319.88-26.92,319.88s-43.32,33.78-51.37-0.49c-1.79-7.63-30.55-290.64-31.54-359.54
						c-1.01-68.9-2.07-163.93-3.99-193.72c-18.5-285.53-63.97-326.31,7.63-528.38C1237.78,4008.08,1433.57,4356.76,1433.57,4356.76z
						"/>
				</g>
			</g>
		</g>
		<path class="st19" d="M1238.59,3830.81c0,0-68.62,19.1-86.96,21.48c-18.34,2.4-33.53,32.51-21.48,69.29
			c12.05,36.8-24.1,229.35-24.1,229.35s41.27,118.97,40.09,135.1c-1.18,16.13-23.57,59.13-23.57,59.13h150.84v-514.36
			C1273.42,3830.81,1253.47,3826.72,1238.59,3830.81z"/>
		<path class="st19" d="M1308.26,3830.81c0,0,68.62,19.1,86.96,21.48c18.34,2.4,33.52,32.51,21.46,69.29
			c-12.03,36.8,24.1,229.35,24.1,229.35s-41.25,118.97-40.07,135.1c1.17,16.13,23.57,59.13,23.57,59.13h-150.86v-514.36
			C1273.42,3830.81,1293.36,3826.72,1308.26,3830.81z"/>
		<g>
			<g>
				<path class="st19" d="M1135.05,4301.53c0,0-110.07,175.63-70.32,503.7c0,0,275.46-27.38,457.4-41.31c0,0-64.98-348-88.57-407.17
					C1409.98,4297.59,1135.05,4301.53,1135.05,4301.53z"/>
			</g>
		</g>
		<path class="st19" d="M1413.6,4300.82c-6.8-19.68-1.15-62.47,5.49-84.61c4.24-14.15-114.06-3.27-199.81,6.4
			c-22.67,2.56-43.05,5.04-58.3,6.93c-17.26,2.15-27.95,3.59-27.95,3.59s0.28,0.6,0.67,1.8c1.19,3.66,3.32,12.97,1.68,28.69
			c-1.43,13.55-5.67,31.87-15.79,55.44c-27.1,63.16-31.41,95.3-31.41,95.3l366.27,7.56
			C1454.45,4421.91,1420.42,4320.49,1413.6,4300.82z"/>
		<g>
			<g>
				<path class="st20" d="M1268.1,3534.8c0,0-86.16,12.43-73.55,139.63c12.61,127.18,88.65,117.1,93.74,116.99
					c5.07-0.11,76.29,2.65,82.45-152.55C1370.74,3638.86,1373.61,3524.08,1268.1,3534.8z"/>
			</g>
		</g>
		<g>
			<g>
				<path class="st20" d="M1229.81,3768.86c0,0,5.34,66.16-7.4,85.98c-12.76,19.82,10.9,46.73,59.61,37.53
					c48.71-9.2,45.88-36.82,45.88-36.82s-13.64-40.83-9.66-73.51C1322.23,3749.35,1229.81,3768.86,1229.81,3768.86z"/>
			</g>
		</g>
		<g>
			<g>
				<path class="st16" d="M1277.96,3580.89c0,0-40.26,42.33-58.95,63.75c-18.71,21.45-20.86,62.82-20.86,62.82
					s-31.48-38.46-18.32-83.27c13.18-44.81,44.34-131.99,123.24-105.21c78.9,26.79,81.81,144.67,72.58,203.11
					C1375.64,3722.09,1340.21,3593.07,1277.96,3580.89z"/>
			</g>
		</g>
		<g>
			<path class="st21" d="M1311.91,3785.66c0,0-36.71,17.35-72.45-8.29c0,0,9.93,20.51,36.23,23.41
				C1301.98,3803.69,1311.91,3785.66,1311.91,3785.66z"/>
		</g>
		<path class="st22" d="M1134.73,4011.65c0,0-2.47,65.58,3.78,69.7c6.24,4.08,125.81,19.54,152.45,30.44
			c26.62,10.88-196.44,5.21-196.44,5.21L1134.73,4011.65z"/>
		<path class="st19" d="M1149.16,3852.81c0,0-64.61,11.2-78.93,29.84c-14.35,18.62-24.38,58.05-25.09,92.47
			c-0.72,34.4-17.91,146.92-23.66,164.83c-5.72,17.91-26.52,86,21.5,97.49c48.02,11.47,158.24-14.91,200.54-24.22
			c42.28-9.31,111.25-13.06,111.25-13.06s-232.94-52.33-241.54-52.33s21.5-136.18,21.5-136.18S1164.75,3897.63,1149.16,3852.81z"/>
		<path class="st22" d="M1417.17,3993.53c0,0-5.51,71.92-3.55,102.43c1.96,30.49-3.04,55.76-3.04,55.76l43.85,10.99
			C1454.43,4162.7,1466.53,4004.48,1417.17,3993.53z"/>
		<path class="st22" d="M1135.38,4263.62c6.77-9.29,54.13-29.18,83.9-41c14.1-5.6,24.24-12.38,24.24-12.38l-81.94,18.5l-27.88,6.2
			C1134.89,4238.58,1137.03,4247.89,1135.38,4263.62z"/>
		<path class="st20" d="M1158.46,4230.03c0,0,2.76-62.15-9.73-76.41l227.06,2.83l-37.08,35.37
			C1338.7,4191.82,1195.65,4220.21,1158.46,4230.03z"/>
		<path class="st19" d="M1399.42,3853.36c0,0,52.6,3.25,75.05,38.62c22.45,35.35,19.59,77.88,25.81,94.61
			c6.2,16.71,20.07,85.28,20.07,106.07c0,20.78,1.43,126.86-5.74,131.88c-7.17,5-12.9,7.88-35.85,4.29
			c-22.93-3.59-365.53-81-365.53-81s3.07-43.53,4.01-48.78c0,0,267.03,20.74,298.34,27.4c17.88,3.82,21.73,5.26,21.73,5.26
			S1383.14,3909.34,1399.42,3853.36z"/>
		<path class="st20" d="M1357.1,4118.75c0,0,32.06-26.09,36.38-30.39c4.29-4.31,62.59-26.54,70.24-27.97
			c7.63-1.43,9.31,4.54,7.63,7.17c-1.68,2.63-59.73,25.81-60.44,27.47c-0.72,1.68,5.3-0.21,5.3-0.21s64.69-15.32,70.19-11.98
			c5.5,3.36,1.2,8.6-1.18,10.28c0,0,7.4,5.49,1.18,9.79c-6.2,4.31-15.05,8.13-15.05,8.13s9.56,2.53,4.79,7.7
			c-4.79,5.19-38.83,12.97-38.83,12.97S1370.9,4117.16,1357.1,4118.75z"/>
		<path class="st20" d="M1366.7,4119.05c0,0-9.7,50.23-5.12,85.23c0,0-239-52.15-248.34-52.61c0,0-1.73-21.89,4.01-52.61
			C1117.24,4099.05,1296.44,4109,1366.7,4119.05z"/>
	</g>
	
		<linearGradient id="SVGID_00000129175993223882679360000001576358051281467579_" gradientUnits="userSpaceOnUse" x1="-11925.3271" y1="5707.4888" x2="-10525.9658" y2="5707.4888" gradientTransform="matrix(1 0 0 1 12536.5342 0)">
		<stop  offset="0" style="stop-color:#FFCD7D"/>
		<stop  offset="0.0539" style="stop-color:#FFCB79"/>
		<stop  offset="0.9948" style="stop-color:#F7A037"/>
	</linearGradient>
	<path style="fill:url(#SVGID_00000129175993223882679360000001576358051281467579_);" d="M2010.57,5547.93
		c0,176.23-313.25,319.12-699.66,319.12c-386.43,0-699.7-142.89-699.7-319.12H2010.57z"/>
	<path class="st21" d="M4926.35,4360.82c0,0,15.23,60.93,61.98,70.14c2.47-7.46,7.44-15.93,7.44-15.93
		S4963.01,4414.14,4926.35,4360.82z"/>
</g>
<path class="st24" d="M2180.15,7091.26"/>
<path class="st24" d="M865.37,4919.51c-86.76,93.21-240.54,161.2-389.68,316.16c-293.72,305.18-196.45,733.03-175.3,901.57
	c60.16,479.39,333.17,820.7,450.78,964.17c258.03,314.76,408.9,321.76,425.74,475.83c38.32,350.52-679.46,891.5-1302.26,889.04
	c-1207.59-4.76-2825.03-2055.63-2116.17-3430.96c419.37-813.66,1586.24-1261.44,2829.91-1039.3"/>
</svg>
